REM DIRINDEX 1\6,1\2\7,1\2\8,1\2\9,1\3\10,1\3\11,1\4\12,1\4\13,1\4\14,1\5\15,1\5\16,1\5\17
REM DIRNAME folder01,folder02,folder03,folder04,folder05,folder06,folder07,folder08,folder09,folder10,folder11,folder12,folder13,folder14,folder15,folder16,folder17
TITLE ""
FILE "3Q_t2_0723-0738.mp3" MP3
  TRACK 01 AUDIO
    TITLE "7:cjc041_5587"
    INDEX 01 00:00:00
  TRACK 02 AUDIO
    TITLE "0:"
    INDEX 01 00:01:09
  TRACK 03 AUDIO
    TITLE "8:cjc041_5588"
    INDEX 01 00:01:66
  TRACK 04 AUDIO
    TITLE "0:"
    INDEX 01 00:02:71
  TRACK 05 AUDIO
    TITLE "9:cjc041_5589"
    INDEX 01 00:03:55
  TRACK 06 AUDIO
    TITLE "0:"
    INDEX 01 00:04:74
  TRACK 07 AUDIO
    TITLE "7:cjc041_5590"
    INDEX 01 00:06:53
  TRACK 08 AUDIO
    TITLE "0:"
    INDEX 01 00:08:03
  TRACK 09 AUDIO
    TITLE "8:cjc041_5591"
    INDEX 01 00:08:54
  TRACK 10 AUDIO
    TITLE "0:"
    INDEX 01 00:09:63
  TRACK 11 AUDIO
    TITLE "9:cjc041_5592"
    INDEX 01 00:10:41
  TRACK 12 AUDIO
    TITLE "0:"
    INDEX 01 00:11:68
  TRACK 13 AUDIO
    TITLE "7:cjc041_5593"
    INDEX 01 00:13:49
  TRACK 14 AUDIO
    TITLE "0:"
    INDEX 01 00:14:68
  TRACK 15 AUDIO
    TITLE "8:cjc041_5594"
    INDEX 01 00:15:46
  TRACK 16 AUDIO
    TITLE "0:"
    INDEX 01 00:16:61
  TRACK 17 AUDIO
    TITLE "9:cjc041_5595"
    INDEX 01 00:17:37
  TRACK 18 AUDIO
    TITLE "0:"
    INDEX 01 00:18:58
  TRACK 19 AUDIO
    TITLE "7:cjc041_5596"
    INDEX 01 00:20:36
  TRACK 20 AUDIO
    TITLE "0:"
    INDEX 01 00:21:47
  TRACK 21 AUDIO
    TITLE "8:cjc041_5597"
    INDEX 01 00:22:27
  TRACK 22 AUDIO
    TITLE "0:"
    INDEX 01 00:23:53
  TRACK 23 AUDIO
    TITLE "9:cjc041_5598"
    INDEX 01 00:24:25
  TRACK 24 AUDIO
    TITLE "0:"
    INDEX 01 00:25:37
  TRACK 25 AUDIO
    TITLE "7:cjc041_5599"
    INDEX 01 00:27:14
  TRACK 26 AUDIO
    TITLE "0:"
    INDEX 01 00:28:25
  TRACK 27 AUDIO
    TITLE "8:cjc041_5600"
    INDEX 01 00:29:05
  TRACK 28 AUDIO
    TITLE "0:"
    INDEX 01 00:31:43
  TRACK 29 AUDIO
    TITLE "9:cjc041_5601"
    INDEX 01 00:32:15
  TRACK 30 AUDIO
    TITLE "0:"
    INDEX 01 00:33:24
  TRACK 31 AUDIO
    TITLE "7:cjc041_5602"
    INDEX 01 00:35:00
  TRACK 32 AUDIO
    TITLE "0:"
    INDEX 01 00:36:17
  TRACK 33 AUDIO
    TITLE "8:cjc041_5603"
    INDEX 01 00:36:72
  TRACK 34 AUDIO
    TITLE "0:"
    INDEX 01 00:38:00
  TRACK 35 AUDIO
    TITLE "9:cjc041_5604"
    INDEX 01 00:38:53
  TRACK 36 AUDIO
    TITLE "0:"
    INDEX 01 00:39:64
  TRACK 37 AUDIO
    TITLE "7:cjc041_5605"
    INDEX 01 00:41:42
  TRACK 38 AUDIO
    TITLE "0:"
    INDEX 01 00:42:66
  TRACK 39 AUDIO
    TITLE "8:cjc041_5606"
    INDEX 01 00:43:40
  TRACK 40 AUDIO
    TITLE "0:"
    INDEX 01 00:46:02
  TRACK 41 AUDIO
    TITLE "9:cjc041_5607"
    INDEX 01 00:46:54
  TRACK 42 AUDIO
    TITLE "0:"
    INDEX 01 00:48:04
  TRACK 43 AUDIO
    TITLE "7:cjc041_5608"
    INDEX 01 00:49:59
  TRACK 44 AUDIO
    TITLE "0:"
    INDEX 01 00:50:70
  TRACK 45 AUDIO
    TITLE "8:cjc041_5609"
    INDEX 01 00:51:46
  TRACK 46 AUDIO
    TITLE "0:"
    INDEX 01 00:53:47
  TRACK 47 AUDIO
    TITLE "9:cjc041_5610"
    INDEX 01 00:54:30
  TRACK 48 AUDIO
    TITLE "0:"
    INDEX 01 00:55:38
  TRACK 49 AUDIO
    TITLE "7:cjc041_5611"
    INDEX 01 00:57:19
  TRACK 50 AUDIO
    TITLE "0:"
    INDEX 01 00:58:28
  TRACK 51 AUDIO
    TITLE "8:cjc041_5612"
    INDEX 01 00:59:08
  TRACK 52 AUDIO
    TITLE "0:"
    INDEX 01 01:01:70
  TRACK 53 AUDIO
    TITLE "9:cjc041_5613"
    INDEX 01 01:02:50
  TRACK 54 AUDIO
    TITLE "0:"
    INDEX 01 01:03:57
  TRACK 55 AUDIO
    TITLE "7:cjc041_5614"
    INDEX 01 01:05:42
  TRACK 56 AUDIO
    TITLE "0:"
    INDEX 01 01:06:57
  TRACK 57 AUDIO
    TITLE "8:cjc041_5615"
    INDEX 01 01:07:33
  TRACK 58 AUDIO
    TITLE "0:"
    INDEX 01 01:08:17
  TRACK 59 AUDIO
    TITLE "9:cjc041_5616"
    INDEX 01 01:08:70
  TRACK 60 AUDIO
    TITLE "0:"
    INDEX 01 01:10:10
  TRACK 61 AUDIO
    TITLE "7:cjc041_5617"
    INDEX 01 01:11:56
  TRACK 62 AUDIO
    TITLE "0:"
    INDEX 01 01:12:71
  TRACK 63 AUDIO
    TITLE "8:cjc041_5618"
    INDEX 01 01:13:47
  TRACK 64 AUDIO
    TITLE "0:"
    INDEX 01 01:15:58
  TRACK 65 AUDIO
    TITLE "9:cjc041_5619"
    INDEX 01 01:16:34
  TRACK 66 AUDIO
    TITLE "0:"
    INDEX 01 01:17:49
  TRACK 67 AUDIO
    TITLE "7:cjc041_5620"
    INDEX 01 01:19:23
  TRACK 68 AUDIO
    TITLE "0:"
    INDEX 01 01:20:44
  TRACK 69 AUDIO
    TITLE "8:cjc041_5621"
    INDEX 01 01:21:16
  TRACK 70 AUDIO
    TITLE "0:"
    INDEX 01 01:22:21
  TRACK 71 AUDIO
    TITLE "9:cjc041_5622"
    INDEX 01 01:23:01
  TRACK 72 AUDIO
    TITLE "0:"
    INDEX 01 01:24:22
  TRACK 73 AUDIO
    TITLE "7:cjc041_5623"
    INDEX 01 01:26:03
  TRACK 74 AUDIO
    TITLE "0:"
    INDEX 01 01:27:22
  TRACK 75 AUDIO
    TITLE "8:cjc041_5624"
    INDEX 01 01:28:00
  TRACK 76 AUDIO
    TITLE "0:"
    INDEX 01 01:28:71
  TRACK 77 AUDIO
    TITLE "9:cjc041_5625"
    INDEX 01 01:29:52
  TRACK 78 AUDIO
    TITLE "0:"
    INDEX 01 01:30:71
  TRACK 79 AUDIO
    TITLE "7:cjc041_5626"
    INDEX 01 01:32:47
  TRACK 80 AUDIO
    TITLE "0:"
    INDEX 01 01:33:68
  TRACK 81 AUDIO
    TITLE "8:cjc041_5627"
    INDEX 01 01:34:46
  TRACK 82 AUDIO
    TITLE "0:"
    INDEX 01 01:35:51
  TRACK 83 AUDIO
    TITLE "9:cjc041_5628"
    INDEX 01 01:36:29
  TRACK 84 AUDIO
    TITLE "0:"
    INDEX 01 01:37:50
  TRACK 85 AUDIO
    TITLE "7:cjc041_5629"
    INDEX 01 01:39:33
  TRACK 86 AUDIO
    TITLE "0:"
    INDEX 01 01:40:52
  TRACK 87 AUDIO
    TITLE "8:cjc041_5630"
    INDEX 01 01:41:30
  TRACK 88 AUDIO
    TITLE "0:"
    INDEX 01 01:42:53
  TRACK 89 AUDIO
    TITLE "9:cjc041_5631"
    INDEX 01 01:43:27
  TRACK 90 AUDIO
    TITLE "0:"
    INDEX 01 01:44:48
  TRACK 91 AUDIO
    TITLE "7:cjc041_5632"
    INDEX 01 01:46:21
  TRACK 92 AUDIO
    TITLE "0:"
    INDEX 01 01:47:52
  TRACK 93 AUDIO
    TITLE "8:cjc041_5633"
    INDEX 01 01:48:30
  TRACK 94 AUDIO
    TITLE "0:"
    INDEX 01 01:49:41
  TRACK 95 AUDIO
    TITLE "9:cjc041_5634"
    INDEX 01 01:50:19
  TRACK 96 AUDIO
    TITLE "0:"
    INDEX 01 01:51:54
